<svg width="50" height="50" viewBox="0 0 50 50" fill="none" xmlns="http://www.w3.org/2000/svg">
<g clip-path="url(#clip0)">
<path d="M23.7876 0.0288736C10.5826 0.657618 0.162083 11.6548 0.202141 24.8747C0.214338 28.9011 1.18639 32.7016 2.90115 36.0596L0.268388 48.8393C0.12597 49.5306 0.749453 50.1359 1.43619 49.9733L13.9588 47.0064C17.1761 48.609 20.7898 49.5346 24.6142 49.593C38.111 49.7992 49.3649 39.0824 49.7855 25.5907C50.2365 11.1285 38.3004 -0.662291 23.7876 0.0288736ZM38.7298 38.5278C35.0624 42.1952 30.1864 44.2148 25 44.2148C21.9632 44.2148 19.0557 43.5335 16.3582 42.1898L14.6142 41.321L6.93657 43.1401L8.55267 35.2949L7.6935 33.6124C6.29312 30.8699 5.58306 27.9042 5.58306 24.7979C5.58306 19.6114 7.60274 14.7355 11.2701 11.068C14.9047 7.43342 19.8603 5.38085 25.0004 5.38085C30.1867 5.38097 35.0625 7.40065 38.7299 11.0679C42.3972 14.7352 44.4169 19.6112 44.417 24.7975C44.4169 29.9378 42.3644 34.8933 38.7298 38.5278Z" fill="#7AD06D"/>
<path d="M37.0349 30.1758L32.2316 28.7966C31.6001 28.6153 30.92 28.7944 30.4599 29.2633L29.2853 30.46C28.79 30.9646 28.0384 31.1268 27.3829 30.8616C25.1107 29.942 20.3309 25.6922 19.1102 23.5664C18.7581 22.9532 18.8163 22.1866 19.2487 21.6271L20.2742 20.3004C20.676 19.7806 20.7608 19.0825 20.4951 18.4816L18.4742 13.9109C17.9901 12.8162 16.5912 12.4975 15.6772 13.2705C14.3366 14.4043 12.746 16.1273 12.5527 18.0362C12.2117 21.4016 13.655 25.644 19.113 30.738C25.4184 36.6231 30.4677 37.4006 33.7553 36.6042C35.62 36.1526 37.1102 34.3419 38.0506 32.8594C38.6918 31.8486 38.1855 30.5062 37.0349 30.1758Z" fill="#7AD06D"/>
</g>
<defs>
<clipPath id="clip0">
<rect width="50" height="50" fill="white"/>
</clipPath>
</defs>
</svg>
