<svg width="50" height="50" viewBox="0 0 50 50" fill="none" xmlns="http://www.w3.org/2000/svg">
<path d="M47.3607 11.993L44.1688 44.0447H5.83135L3.25977 12.6133L25.0001 24.7854L47.3607 11.993Z" fill="#F2F2F2"/>
<path d="M46.2781 5.95535L25.0002 25.9432L3.72226 5.95535H25.0002H46.2781Z" fill="#F2F2F2"/>
<path d="M5.83125 15.1848V44.0446H2.35732C1.05586 44.0446 0 42.9888 0 41.6873V10.9343L3.80859 11.0381L5.83125 15.1848Z" fill="#F14336"/>
<path d="M50 10.9343V41.6874C50 42.9889 48.9441 44.0447 47.6414 44.0447H44.1687V15.1849L46.0918 10.6414L50 10.9343Z" fill="#D32E2A"/>
<path d="M50 8.31268V10.9343L44.1688 15.1848L25 29.1563L5.83125 15.1848L0 10.9343V8.31268C0 7.01121 1.05586 5.95535 2.35732 5.95535H3.72207L25 21.464L46.2779 5.95535H47.6414C48.9441 5.95535 50 7.01111 50 8.31268Z" fill="#F14336"/>
<path d="M5.83125 15.1848L0 14.2807V10.9343L5.83125 15.1848Z" fill="#D32E2A"/>
</svg>
