<svg width="70" height="70" viewBox="0 0 70 70" fill="none" xmlns="http://www.w3.org/2000/svg">
<path d="M51.1066 43.1971C50.0157 44.9563 48.8241 46.7902 47.5333 48.6974C58.389 50.3208 63.9473 53.798 63.9473 55.5282C63.9473 57.8321 54.0986 63.2317 34.9992 63.2317C15.9014 63.2317 6.05266 57.8321 6.05266 55.5282C6.05266 53.798 11.6094 50.3224 22.4682 48.6974C21.1759 46.7902 19.9858 44.9563 18.8934 43.1971C8.17956 45.2172 0 49.3703 0 55.5282C0 64.5607 17.6087 69.2875 34.9992 69.2875C52.3928 69.2875 70 64.5607 70 55.5282C70.0015 49.3703 61.8235 45.2172 51.1066 43.1971Z" fill="#5A003A"/>
<path d="M35.0786 0.714054C23.73 0.714054 14.5312 9.91281 14.5312 21.2583C14.5312 29.3982 25.1001 44.9715 31.078 53.1282C32.0133 54.4037 33.4979 55.1575 35.0786 55.1575C36.6562 55.1575 38.1453 54.4037 39.076 53.1282C45.0539 44.9715 55.6243 29.3982 55.6243 21.2583C55.6243 9.91281 46.4256 0.714054 35.0786 0.714054ZM35.0786 34.0151C28.3729 34.0151 22.9183 28.5606 22.9183 21.8579C22.9183 15.1538 28.3729 9.69921 35.0786 9.69921C41.7827 9.69921 47.2358 15.1538 47.2358 21.8579C47.2358 28.5606 41.7827 34.0151 35.0786 34.0151Z" fill="#5A003A"/>
<path d="M35.0784 14.4626C31.0001 14.4626 27.6831 17.7796 27.6831 21.8579C27.6831 25.9332 31.0001 29.2517 35.0784 29.2517C39.1552 29.2517 42.4737 25.9347 42.4737 21.8579C42.4737 17.7781 39.1552 14.4626 35.0784 14.4626Z" fill="#5A003A"/>
</svg>
